<mxfile host="app.diagrams.net" modified="2023-08-23T17:00:44.986Z" agent="Mozilla/5.0 (X11; Ubuntu; Linux x86_64; rv:109.0) Gecko/20100101 Firefox/116.0" etag="9ivx9GIGJG5dpn8RRGud" version="21.6.5" type="device">
  <diagram id="_gOdQb0Ssz_ZXRNiwwcR" name="Page-1">
    <mxGraphModel dx="1434" dy="722" grid="1" gridSize="10" guides="1" tooltips="1" connect="1" arrows="1" fold="1" page="1" pageScale="1" pageWidth="1169" pageHeight="827" background="#ffffff" math="0" shadow="0">
      <root>
        <mxCell id="0" />
        <mxCell id="1" parent="0" />
        <mxCell id="-JV48Y_S0-cx1y7TVRhF-1" value="&lt;b&gt;GCP&lt;/b&gt;&amp;nbsp;Project" style="shadow=0;fontSize=14;align=left;spacing=10;9E9E9E;verticalAlign=top;spacingTop=-4;fontStyle=0;spacingLeft=40;html=1;dashed=1;labelBackgroundColor=none;fillColor=#F6F6F6;" parent="1" vertex="1">
          <mxGeometry x="60" y="190" width="460" height="230" as="geometry" />
        </mxCell>
        <mxCell id="-JV48Y_S0-cx1y7TVRhF-2" value="" style="shape=mxgraph.gcp2.google_cloud_platform;fillColor=#F6F6F6;strokeColor=none;shadow=0;gradientColor=none;" parent="-JV48Y_S0-cx1y7TVRhF-1" vertex="1">
          <mxGeometry width="23" height="20" relative="1" as="geometry">
            <mxPoint x="20" y="10" as="offset" />
          </mxGeometry>
        </mxCell>
        <mxCell id="-JV48Y_S0-cx1y7TVRhF-4" value="Region" style="rounded=0;whiteSpace=wrap;html=1;labelBackgroundColor=none;align=left;verticalAlign=top;spacing=2;fontColor=#808080;fillColor=none;dashed=1;spacingLeft=8;strokeColor=#A19999;" parent="1" vertex="1">
          <mxGeometry x="90" y="240" width="370" height="150" as="geometry" />
        </mxCell>
        <mxCell id="-JV48Y_S0-cx1y7TVRhF-25" value="KMS" style="html=1;fillColor=#5184F3;strokeColor=none;verticalAlign=top;labelPosition=center;verticalLabelPosition=bottom;align=center;spacingTop=-6;fontSize=11;fontStyle=1;fontColor=#999999;shape=mxgraph.gcp2.hexIcon;prIcon=key_management_service;labelBackgroundColor=none;" parent="1" vertex="1">
          <mxGeometry x="380" y="288.31" width="66" height="58.5" as="geometry" />
        </mxCell>
        <mxCell id="IB0Y5ULKIefkXnK3cLs8-16" style="edgeStyle=orthogonalEdgeStyle;rounded=0;orthogonalLoop=1;jettySize=auto;html=1;fontFamily=Helvetica;fontSize=12;fontColor=default;entryX=0.175;entryY=0.5;entryDx=0;entryDy=0;entryPerimeter=0;" parent="1" source="IB0Y5ULKIefkXnK3cLs8-1" target="-JV48Y_S0-cx1y7TVRhF-25" edge="1">
          <mxGeometry relative="1" as="geometry" />
        </mxCell>
        <mxCell id="IB0Y5ULKIefkXnK3cLs8-1" value="" style="shape=mxgraph.gcp2.doubleRect;strokeColor=#dddddd;shadow=1;strokeWidth=1;rounded=1;absoluteArcSize=1;arcSize=2;" parent="1" vertex="1">
          <mxGeometry x="110" y="283.56" width="220" height="68" as="geometry" />
        </mxCell>
        <mxCell id="IB0Y5ULKIefkXnK3cLs8-2" value="&lt;font color=&quot;#000000&quot;&gt;API server&lt;/font&gt;&lt;br&gt;Cloud Run service" style="editableCssRules=.*;html=1;fontColor=#999999;shape=image;verticalLabelPosition=middle;labelBackgroundColor=#ffffff;verticalAlign=middle;labelPosition=right;align=left;spacingLeft=20;part=1;points=[];imageAspect=0;image=data:image/svg+xml,PHN2ZyB4bWxucz0iaHR0cDovL3d3dy53My5vcmcvMjAwMC9zdmciIHhtbG5zOnY9Imh0dHBzOi8vdmVjdGEuaW8vbmFubyIgd2lkdGg9IjM2NS40NjQ5OTY3NzA0MjQ5MyIgaGVpZ2h0PSIzNzkuMjIyOTk0NDYzNTc3OTUiIHZpZXdCb3g9IjAgMCA5Ni42OTU5OTkxNDU1MDc4MSAxMDAuMzM1OTk4NTM1MTU2MjUiPiYjeGE7PHN0eWxlIHR5cGU9InRleHQvY3NzIj4mI3hhOwkuc3Qwe2ZpbGw6IzQyODVmNDt9JiN4YTsJLnN0MXtmaWxsOiNhZWNiZmE7fSYjeGE7PC9zdHlsZT4mI3hhOwk8cGF0aCBjbGFzcz0ic3QwIiBkPSJNMjkuNzk0IDEwMC4zMzZMNDYuOTIgNTAuMTY4aDQ5Ljc3NnpNMCA5OS42NzFsMTIuOTc2LTQ5LjUwMkgyOS4yMkwxNi44OTcgOTIuMDU0eiIvPiYjeGE7CTxwYXRoIGNsYXNzPSJzdDEiIGQ9Ik0yOS43OTQgMEw0Ni45MiA1MC4xNjhoNDkuNzc2ek0wIC42NjZsMTIuOTc2IDQ5LjUwMkgyOS4yMkwxNi44OTcgOC4yODN6Ii8+JiN4YTs8L3N2Zz4=;" parent="IB0Y5ULKIefkXnK3cLs8-1" vertex="1">
          <mxGeometry width="30" height="30" relative="1" as="geometry">
            <mxPoint x="15" y="15" as="offset" />
          </mxGeometry>
        </mxCell>
        <mxCell id="uTiZlvb2gCgVAGeOfXkx-1" style="edgeStyle=orthogonalEdgeStyle;rounded=0;orthogonalLoop=1;jettySize=auto;html=1;entryX=0.5;entryY=1;entryDx=0;entryDy=0;startArrow=classic;startFill=1;endArrow=none;endFill=0;" edge="1" parent="1" source="IB0Y5ULKIefkXnK3cLs8-21" target="IB0Y5ULKIefkXnK3cLs8-1">
          <mxGeometry relative="1" as="geometry" />
        </mxCell>
        <mxCell id="IB0Y5ULKIefkXnK3cLs8-21" value="MongoDB server&lt;br&gt;(Any cloud, any region)" style="dashed=0;outlineConnect=0;html=1;align=center;labelPosition=center;verticalLabelPosition=bottom;verticalAlign=top;shape=mxgraph.webicons.mongodb;gradientColor=#DFDEDE;rounded=1;shadow=1;strokeColor=#dddddd;strokeWidth=1;fontFamily=Helvetica;fontSize=12;fontColor=#000000;" parent="1" vertex="1">
          <mxGeometry x="192" y="440" width="56" height="50" as="geometry" />
        </mxCell>
      </root>
    </mxGraphModel>
  </diagram>
</mxfile>
